<mxfile host="app.diagrams.net" modified="2021-10-04T15:43:04.622Z" agent="5.0 (Windows NT 10.0; Win64; x64) AppleWebKit/537.36 (KHTML, like Gecko) Chrome/94.0.4606.71 Safari/537.36 Edg/94.0.992.38" etag="TI3TUJKlaxFjwqy2s54q" version="15.4.1" type="github">
  <diagram name="Animal" id="b5b7bab2-c9e2-2cf4-8b2a-24fd1a2a6d21">
    <mxGraphModel dx="766" dy="468" grid="1" gridSize="10" guides="1" tooltips="1" connect="1" arrows="1" fold="1" page="1" pageScale="1" pageWidth="827" pageHeight="1169" background="none" math="0" shadow="0">
      <root>
        <mxCell id="0" />
        <mxCell id="1" parent="0" />
        <mxCell id="6e0c8c40b5770093-73" value="&amp;lt;&amp;lt;model&amp;gt;&amp;gt;" style="text;html=1;align=left;verticalAlign=top;spacingTop=-4;fontSize=10;fontFamily=Verdana" parent="1" vertex="1">
          <mxGeometry x="327.5" y="114.5" width="130" height="20" as="geometry" />
        </mxCell>
        <mxCell id="adMFMcHxH-faMSVCUsOo-2" value="Animal" style="swimlane;fontStyle=0;childLayout=stackLayout;horizontal=1;startSize=30;horizontalStack=0;resizeParent=1;resizeParentMax=0;resizeLast=0;collapsible=1;marginBottom=0;" vertex="1" parent="1">
          <mxGeometry x="330" y="540" width="140" height="160" as="geometry" />
        </mxCell>
        <mxCell id="adMFMcHxH-faMSVCUsOo-3" value="Nombre: Cadena" style="text;strokeColor=none;fillColor=none;align=left;verticalAlign=middle;spacingLeft=4;spacingRight=4;overflow=hidden;points=[[0,0.5],[1,0.5]];portConstraint=eastwest;rotatable=0;" vertex="1" parent="adMFMcHxH-faMSVCUsOo-2">
          <mxGeometry y="30" width="140" height="30" as="geometry" />
        </mxCell>
        <mxCell id="adMFMcHxH-faMSVCUsOo-4" value="Especie: Cadena" style="text;strokeColor=none;fillColor=none;align=left;verticalAlign=middle;spacingLeft=4;spacingRight=4;overflow=hidden;points=[[0,0.5],[1,0.5]];portConstraint=eastwest;rotatable=0;" vertex="1" parent="adMFMcHxH-faMSVCUsOo-2">
          <mxGeometry y="60" width="140" height="30" as="geometry" />
        </mxCell>
        <mxCell id="adMFMcHxH-faMSVCUsOo-5" value="Altura: Numero&#xa;&#xa;Peso: Numero" style="text;strokeColor=none;fillColor=none;align=left;verticalAlign=middle;spacingLeft=4;spacingRight=4;overflow=hidden;points=[[0,0.5],[1,0.5]];portConstraint=eastwest;rotatable=0;" vertex="1" parent="adMFMcHxH-faMSVCUsOo-2">
          <mxGeometry y="90" width="140" height="70" as="geometry" />
        </mxCell>
        <mxCell id="adMFMcHxH-faMSVCUsOo-7" style="edgeStyle=elbowEdgeStyle;rounded=0;html=1;dashed=1;labelBackgroundColor=none;startFill=0;endArrow=open;endFill=0;endSize=10;fontFamily=Verdana;fontSize=10;" edge="1" parent="1" target="adMFMcHxH-faMSVCUsOo-9">
          <mxGeometry relative="1" as="geometry">
            <mxPoint x="392.15103448275863" y="700" as="sourcePoint" />
            <mxPoint x="392" y="800" as="targetPoint" />
            <Array as="points">
              <mxPoint x="392.22" y="725.5" />
            </Array>
          </mxGeometry>
        </mxCell>
        <mxCell id="adMFMcHxH-faMSVCUsOo-9" value="Mamifero" style="swimlane;fontStyle=0;childLayout=stackLayout;horizontal=1;startSize=30;horizontalStack=0;resizeParent=1;resizeParentMax=0;resizeLast=0;collapsible=1;marginBottom=0;" vertex="1" parent="1">
          <mxGeometry x="140" y="730" width="140" height="120" as="geometry" />
        </mxCell>
        <mxCell id="adMFMcHxH-faMSVCUsOo-10" value="RespiracionPulmonar()" style="text;strokeColor=none;fillColor=none;align=left;verticalAlign=middle;spacingLeft=4;spacingRight=4;overflow=hidden;points=[[0,0.5],[1,0.5]];portConstraint=eastwest;rotatable=0;" vertex="1" parent="adMFMcHxH-faMSVCUsOo-9">
          <mxGeometry y="30" width="140" height="30" as="geometry" />
        </mxCell>
        <mxCell id="adMFMcHxH-faMSVCUsOo-11" value="SangreCaliente: Cadena" style="text;strokeColor=none;fillColor=none;align=left;verticalAlign=middle;spacingLeft=4;spacingRight=4;overflow=hidden;points=[[0,0.5],[1,0.5]];portConstraint=eastwest;rotatable=0;" vertex="1" parent="adMFMcHxH-faMSVCUsOo-9">
          <mxGeometry y="60" width="140" height="30" as="geometry" />
        </mxCell>
        <mxCell id="adMFMcHxH-faMSVCUsOo-12" value="Paren()" style="text;strokeColor=none;fillColor=none;align=left;verticalAlign=middle;spacingLeft=4;spacingRight=4;overflow=hidden;points=[[0,0.5],[1,0.5]];portConstraint=eastwest;rotatable=0;" vertex="1" parent="adMFMcHxH-faMSVCUsOo-9">
          <mxGeometry y="90" width="140" height="30" as="geometry" />
        </mxCell>
        <mxCell id="adMFMcHxH-faMSVCUsOo-13" style="edgeStyle=elbowEdgeStyle;rounded=0;html=1;dashed=1;labelBackgroundColor=none;startFill=0;endArrow=open;endFill=0;endSize=10;fontFamily=Verdana;fontSize=10;entryX=0.357;entryY=0;entryDx=0;entryDy=0;entryPerimeter=0;" edge="1" parent="1" target="adMFMcHxH-faMSVCUsOo-14">
          <mxGeometry relative="1" as="geometry">
            <mxPoint x="470.15103448275863" y="690" as="sourcePoint" />
            <mxPoint x="470" y="790" as="targetPoint" />
            <Array as="points">
              <mxPoint x="470.22" y="715.5" />
            </Array>
          </mxGeometry>
        </mxCell>
        <mxCell id="adMFMcHxH-faMSVCUsOo-14" value="Reptiles" style="swimlane;fontStyle=0;childLayout=stackLayout;horizontal=1;startSize=30;horizontalStack=0;resizeParent=1;resizeParentMax=0;resizeLast=0;collapsible=1;marginBottom=0;" vertex="1" parent="1">
          <mxGeometry x="420" y="800" width="140" height="120" as="geometry" />
        </mxCell>
        <mxCell id="adMFMcHxH-faMSVCUsOo-15" value="Oviparos()" style="text;strokeColor=none;fillColor=none;align=left;verticalAlign=middle;spacingLeft=4;spacingRight=4;overflow=hidden;points=[[0,0.5],[1,0.5]];portConstraint=eastwest;rotatable=0;" vertex="1" parent="adMFMcHxH-faMSVCUsOo-14">
          <mxGeometry y="30" width="140" height="30" as="geometry" />
        </mxCell>
        <mxCell id="adMFMcHxH-faMSVCUsOo-16" value="PielGruesa()" style="text;strokeColor=none;fillColor=none;align=left;verticalAlign=middle;spacingLeft=4;spacingRight=4;overflow=hidden;points=[[0,0.5],[1,0.5]];portConstraint=eastwest;rotatable=0;" vertex="1" parent="adMFMcHxH-faMSVCUsOo-14">
          <mxGeometry y="60" width="140" height="30" as="geometry" />
        </mxCell>
        <mxCell id="adMFMcHxH-faMSVCUsOo-17" value="SangreFria: Cadena" style="text;strokeColor=none;fillColor=none;align=left;verticalAlign=middle;spacingLeft=4;spacingRight=4;overflow=hidden;points=[[0,0.5],[1,0.5]];portConstraint=eastwest;rotatable=0;" vertex="1" parent="adMFMcHxH-faMSVCUsOo-14">
          <mxGeometry y="90" width="140" height="30" as="geometry" />
        </mxCell>
      </root>
    </mxGraphModel>
  </diagram>
</mxfile>
